<?xml version="1.0" standalone="no"?>
<!DOCTYPE svg PUBLIC "-//W3C//DTD SVG 20010904//EN"
 "http://www.w3.org/TR/2001/REC-SVG-20010904/DTD/svg10.dtd">
<svg version="1.0" xmlns="http://www.w3.org/2000/svg"
 width="1292.000000pt" height="1292.000000pt" viewBox="0 0 1292.000000 1292.000000"
 preserveAspectRatio="xMidYMid meet">
<metadata>
Created by potrace 1.11, written by Peter Selinger 2001-2013
</metadata>
<g transform="translate(0.000000,1292.000000) scale(0.100000,-0.100000)"
fill="#000000" stroke="none">
<path d="M630 6480 l0 -5850 5895 0 5895 0 0 5850 0 5850 -5895 0 -5895 0 0
-5850z m10450 -105 l0 -4545 -4540 0 -4540 0 0 4545 0 4545 4540 0 4540 0 0
-4545z"/>
<path d="M5415 9860 c-124 -16 -189 -57 -298 -193 -114 -141 -164 -227 -649
-1116 -459 -841 -680 -1259 -819 -1547 l-78 -161 -213 -53 c-388 -96 -578
-162 -660 -230 -35 -29 -38 -35 -38 -85 0 -30 5 -57 10 -60 7 -4 6 -13 -1 -26
-13 -26 5 -85 32 -102 13 -8 17 -18 13 -34 -5 -18 -2 -23 15 -23 18 0 19 -3 9
-25 -6 -14 -9 -28 -6 -30 3 -3 29 3 59 14 29 11 54 19 56 17 2 -1 -13 -21 -32
-43 -36 -43 -33 -53 16 -53 13 0 17 -5 12 -16 -8 -22 22 -44 59 -44 16 0 94
22 174 49 79 27 144 48 144 47 0 -2 -27 -67 -60 -146 -76 -178 -116 -312 -125
-416 l-7 -80 36 -32 c42 -36 54 -39 71 -15 11 14 13 11 19 -21 7 -36 9 -38 36
-33 19 4 30 2 34 -8 9 -25 23 -17 39 23 l15 37 1 -38 c1 -34 3 -37 24 -32 18
5 26 1 34 -17 10 -22 12 -21 34 27 22 48 23 49 27 21 3 -26 6 -28 38 -23 62
10 107 40 142 92 18 28 125 236 239 463 113 226 207 412 209 412 1 0 65 9 141
21 140 21 502 33 519 17 4 -4 0 -83 -9 -175 -28 -278 -50 -745 -42 -883 11
-204 32 -329 75 -450 47 -132 87 -198 165 -268 103 -94 143 -105 332 -91 30 2
48 -2 62 -15 20 -18 21 -18 31 6 9 19 6 75 -14 249 -41 364 -49 583 -31 864
24 388 91 991 150 1350 52 320 289 1567 340 1795 25 107 67 276 94 375 74 272
91 349 102 472 11 121 6 143 -33 164 -17 9 -24 8 -33 -4 -9 -13 -13 -10 -28
16 -16 26 -20 28 -32 16 -23 -23 -275 -1164 -401 -1814 -122 -631 -192 -1063
-248 -1535 -44 -365 -86 -875 -87 -1069 -1 -80 -4 -191 -8 -246 l-6 -100 -7
75 c-23 234 -21 356 16 750 54 588 90 883 166 1380 106 692 278 1532 439 2140
54 206 88 460 61 460 -5 0 -14 -10 -21 -22 -11 -20 -12 -20 -21 -4 -7 13 -17
16 -34 12 -17 -5 -24 -2 -24 9 0 12 -15 15 -82 14 -46 -1 -110 -5 -143 -9z
m-151 -977 c-2 -10 -49 -254 -104 -543 -64 -333 -130 -726 -182 -1077 -46
-304 -87 -553 -92 -553 -11 0 1 205 20 335 8 55 32 192 54 305 22 113 82 444
135 735 97 542 153 815 166 815 4 0 5 -8 3 -17z m-385 -1164 c-89 -570 -129
-832 -129 -857 0 -8 -15 -5 -48 12 -64 32 -182 56 -284 57 -116 1 -120 3 -101
59 23 68 141 327 244 532 111 224 402 779 406 775 1 -2 -38 -262 -88 -578z
m358 289 c-3 -8 -6 -5 -6 6 -1 11 2 17 5 13 3 -3 4 -12 1 -19z m-10 -60 c-3
-7 -5 -2 -5 12 0 14 2 19 5 13 2 -7 2 -19 0 -25z m-36 -230 c-16 -106 -44
-292 -61 -413 -37 -263 -118 -794 -125 -815 -2 -8 -2 21 0 65 2 44 49 368 105
720 55 352 100 645 101 650 0 6 3 5 5 -2 3 -6 -8 -99 -25 -205z m156 -540 c-3
-8 -6 -5 -6 6 -1 11 2 17 5 13 3 -3 4 -12 1 -19z m-2362 -653 c-16 -8 -37 -14
-45 -14 -8 0 -1 6 15 14 17 7 37 13 45 13 8 0 2 -6 -15 -13z m2252 -97 c-3 -7
-5 -2 -5 12 0 14 2 19 5 13 2 -7 2 -19 0 -25z m-1937 -67 c-46 -25 -284 -106
-335 -115 -68 -13 -28 9 109 59 189 68 303 96 226 56z m1661 -323 c-12 -118
-22 -239 -23 -269 -1 -47 -2 -49 -5 -14 -7 60 33 512 44 501 2 -2 -5 -100 -16
-218z m-134 100 c-3 -8 -6 -5 -6 6 -1 11 2 17 5 13 3 -3 4 -12 1 -19z m-10
-130 c-2 -13 -4 -5 -4 17 -1 22 1 32 4 23 2 -10 2 -28 0 -40z m-10 -130 c-2
-18 -4 -6 -4 27 0 33 2 48 4 33 2 -15 2 -42 0 -60z m120 -275 c-2 -21 -4 -4
-4 37 0 41 2 58 4 38 2 -21 2 -55 0 -75z"/>
<path d="M8652 8347 c-83 -61 -153 -207 -218 -452 -33 -127 -37 -152 -37 -270
0 -87 5 -153 17 -200 20 -85 117 -328 165 -410 113 -198 270 -365 343 -365 15
0 52 -11 82 -24 75 -33 108 -39 153 -27 71 20 69 5 44 252 -29 285 -25 351 39
609 54 220 71 366 49 441 -8 28 -29 62 -58 92 -39 41 -50 47 -73 43 -28 -5
-28 -5 -28 49 0 60 1 59 -83 71 -37 5 -47 10 -43 21 22 57 20 61 -42 92 l-59
30 -34 -25 -34 -25 -3 35 c-3 29 -8 36 -33 41 -16 4 -35 15 -42 26 -16 26 -66
24 -105 -4z"/>
<path d="M6793 6618 c-24 -59 -34 -72 -49 -69 -10 2 -57 4 -104 5 -76 1 -92
-2 -144 -29 -75 -38 -157 -121 -193 -193 -23 -46 -28 -70 -28 -127 1 -85 16
-115 104 -198 l60 -57 -32 -16 c-239 -122 -405 -572 -293 -792 32 -61 99 -124
158 -148 33 -13 48 -25 48 -37 0 -11 9 -21 20 -24 11 -3 20 -9 20 -14 0 -5 5
-9 11 -9 6 0 9 6 7 12 -8 22 20 40 90 58 37 9 84 24 104 33 91 38 206 135 240
202 27 52 29 139 3 183 -22 37 -93 77 -154 87 -43 7 -44 7 -37 -16 46 -145 41
-185 -27 -252 -36 -36 -166 -121 -173 -114 -1 1 17 88 42 192 46 200 137 512
155 530 5 5 48 12 94 13 86 4 94 9 95 59 0 21 -101 85 -127 80 -15 -3 -23 0
-20 7 2 6 35 99 72 206 37 107 71 201 75 209 10 19 48 -31 56 -75 5 -30 -19
-132 -52 -219 -4 -9 0 -15 10 -15 9 0 16 -5 16 -11 0 -5 16 -17 36 -25 33 -14
38 -14 56 3 32 29 69 112 75 167 9 89 -9 132 -89 208 l-71 66 23 66 24 66 -29
30 c-16 17 -32 30 -35 30 -3 0 -20 -33 -37 -72z m-148 -408 c-41 -117 -75
-215 -75 -217 0 -10 -76 42 -90 61 -24 33 -27 57 -14 118 15 73 56 138 118
185 43 33 126 75 134 69 1 -2 -32 -99 -73 -216z m-169 -507 c-10 -34 -134
-548 -138 -573 -3 -20 -7 -15 -22 29 -15 43 -18 73 -13 155 5 102 19 149 79
271 43 87 111 172 94 118z m-109 -749 c-3 -3 -12 -4 -19 -1 -8 3 -5 6 6 6 11
1 17 -2 13 -5z"/>
<path d="M8032 6650 c-59 -27 -65 -49 -41 -153 l20 -84 -20 -191 c-12 -105
-34 -262 -51 -349 -32 -162 -155 -666 -260 -1058 -140 -523 -214 -948 -235
-1352 -20 -393 1 -493 133 -614 106 -99 227 -141 412 -143 169 -2 182 6 333
180 365 424 794 1022 1142 1594 65 107 221 355 346 550 124 195 275 438 334
540 131 225 293 569 273 581 -20 13 -23 11 -42 -28 -16 -34 -19 -36 -26 -18
-6 17 -11 13 -30 -28 -21 -45 -92 -117 -98 -99 -1 5 14 35 33 68 39 64 51 97
40 113 -13 22 -22 10 -44 -60 -17 -52 -37 -87 -77 -134 -70 -83 -99 -129 -233
-375 -101 -184 -193 -325 -238 -361 -47 -40 97 202 371 620 120 182 146 230
111 201 -13 -11 -15 -10 -9 6 9 30 -74 -64 -129 -146 -107 -159 -178 -254
-382 -505 -244 -300 -253 -313 -570 -785 -132 -195 -280 -414 -330 -486 -134
-191 -309 -414 -303 -384 5 23 259 864 383 1270 141 463 174 812 100 1062 -82
273 -351 475 -749 564 -60 13 -112 24 -115 24 -3 0 -25 -9 -49 -20z m2175
-775 c-4 -8 -11 -15 -17 -15 -6 0 -6 7 2 20 14 22 24 19 15 -5z m-177 -299
c-5 -22 -21 -51 -35 -65 -26 -26 -26 -25 6 41 18 37 34 66 35 65 2 -1 -1 -20
-6 -41z m-289 -183 c-318 -457 -666 -959 -918 -1328 -166 -242 -321 -458 -344
-480 l-42 -40 28 50 c16 28 98 147 184 266 86 119 305 446 486 728 182 282
354 542 383 579 49 62 282 322 288 322 2 0 -27 -44 -65 -97z m163 -36 c-24
-45 -44 -67 -44 -51 0 14 65 115 68 106 1 -5 -9 -30 -24 -55z m-204 -317 c-11
-22 -25 -40 -31 -40 -11 0 -6 10 25 53 28 38 30 34 6 -13z m-1334 -521 c-73
-261 -187 -669 -252 -908 -65 -239 -120 -429 -122 -423 -6 19 47 281 89 437
23 83 83 287 134 455 52 168 112 377 135 465 67 259 134 465 147 452 2 -2 -57
-217 -131 -478z m665 -397 c-11 -16 -27 -35 -36 -42 -27 -23 -18 14 11 44 35
35 51 33 25 -2z"/>
</g>
</svg>
